<svg width="54" height="55" viewBox="0 0 54 55" fill="none" xmlns="http://www.w3.org/2000/svg">
<circle cx="27" cy="27.3987" r="27" fill="#0BD7C3"/>
<path d="M35.1667 24.8334H18.8333C17.5447 24.8334 16.5 25.878 16.5 27.1667V35.3334C16.5 36.622 17.5447 37.6667 18.8333 37.6667H35.1667C36.4553 37.6667 37.5 36.622 37.5 35.3334V27.1667C37.5 25.878 36.4553 24.8334 35.1667 24.8334Z" stroke="white" stroke-width="2" stroke-linecap="round" stroke-linejoin="round"/>
<path d="M21.1665 24.8334V20.1667C21.1665 18.6196 21.7811 17.1359 22.875 16.0419C23.969 14.948 25.4527 14.3334 26.9998 14.3334C28.5469 14.3334 30.0307 14.948 31.1246 16.0419C32.2186 17.1359 32.8332 18.6196 32.8332 20.1667V24.8334" stroke="white" stroke-width="2" stroke-linecap="round" stroke-linejoin="round"/>
</svg>
