<svg width="196" height="49" viewBox="0 0 196 49" fill="none" xmlns="http://www.w3.org/2000/svg">
<path d="M13.9495 28.1973L17.9681 32.216L19.469 30.7151C19.5171 30.667 19.5665 30.6213 19.6183 30.5794L20.5477 29.65C20.702 29.4957 20.8476 29.334 20.9834 29.1674L16.982 25.166L13.9495 28.1973Z" fill="#F6AA00"/>
<path d="M32.8328 9.30398C33.9449 8.19194 35.7543 8.19194 36.8675 9.30398C37.9796 10.416 37.9808 12.2254 36.8675 13.3387L30.0978 20.1085C27.3108 22.8967 27.3108 27.4312 30.0978 30.2182L30.3927 30.502L33.4179 27.4769L33.129 27.1881C32.0133 26.0723 32.0133 24.2568 33.129 23.141L39.9001 16.3712C42.6833 13.5868 42.6833 9.05714 39.9001 6.27393C37.1169 3.49072 32.5872 3.49072 29.8028 6.27393L28.3143 7.76242L31.3456 10.7937L32.8328 9.30398Z" fill="white"/>
<path d="M13.9321 28.1819L13.9481 28.198L16.9782 25.1655L20.9796 21.1628C20.8451 20.9987 20.7019 20.8395 20.5488 20.6864L19.6096 19.7459C19.5602 19.7052 19.5121 19.6608 19.4664 19.6151L17.9656 18.1143L13.9309 22.149L13.9086 22.1268L10.8773 25.1581L10.8848 25.1655L2.0908 33.9594C0.741778 35.3072 -5.15611e-09 37.1005 -5.67397e-09 39.0074C-6.19182e-09 40.9143 0.743012 42.7077 2.0908 44.0555C3.43859 45.4045 5.23194 46.1463 7.13884 46.1463C9.04574 46.1463 10.8391 45.4033 12.1881 44.0555L12.8706 43.3729L9.98252 40.2046L9.15682 41.0242C8.61746 41.5635 7.9016 41.8598 7.14007 41.8598C6.37855 41.8598 5.66145 41.5635 5.12333 41.0242C4.58396 40.4848 4.28775 39.769 4.28775 39.0074C4.28775 38.2459 4.58396 37.5288 5.12333 36.9907L13.9321 28.1819Z" fill="#0BD7C3"/>
<path d="M5.1238 13.3378C4.01175 12.2257 4.01175 10.4151 5.1238 9.30303C6.23584 8.19099 8.04647 8.19099 9.15852 9.30303L17.966 18.1118L19.4669 19.6126C19.5138 19.6583 19.5607 19.7027 19.6101 19.7435L20.5493 20.6839C20.7024 20.837 20.8455 20.9962 20.9801 21.1604C22.8721 23.482 22.8721 26.8428 20.9813 29.1656C20.8455 29.3323 20.7011 29.4927 20.5456 29.6482L19.6162 30.5776C19.5644 30.6196 19.515 30.6652 19.4669 30.7134L18.5313 31.6551L21.5589 34.6827L22.3562 33.8854C22.4068 33.8434 22.4574 33.7977 22.5043 33.7496L23.5757 32.6783C23.7324 32.5215 23.8805 32.3611 24.0249 32.1969C27.5659 28.1918 27.5672 22.1329 24.0249 18.1266C23.883 17.9662 23.7361 17.8069 23.5831 17.6527L22.5068 16.5739C22.4599 16.527 22.4118 16.4826 22.3612 16.4406L21.0047 15.0842L12.1898 6.27051C9.4066 3.4873 4.87695 3.4873 2.09251 6.27051C-0.691934 9.05495 -0.6907 13.5846 2.09251 16.3678L2.15669 16.432L5.18427 13.4044L5.1238 13.3378Z" fill="#F95D00"/>
<path d="M5.19287 13.4001L2.16528 16.4277L10.8876 25.1489L13.9189 22.1176L5.19287 13.4001Z" fill="url(#paint0_linear_377_1852)"/>
<path d="M39.9176 33.9566L39.0943 33.1333L38.5858 32.6248L35.5607 35.6499L35.5545 35.6561L36.885 36.9866C37.4244 37.526 37.7206 38.2418 37.7206 39.0034C37.7206 39.7649 37.4244 40.482 36.885 41.0201C36.3457 41.5595 35.6298 41.8557 34.8683 41.8557C34.1068 41.8557 33.3897 41.5595 32.8515 41.0201L24.028 32.1965C23.8836 32.3595 23.7355 32.5211 23.5787 32.6779L22.5074 33.7492C22.4593 33.7973 22.4099 33.8418 22.3593 33.885L21.562 34.6823L21.5657 34.686L21.0103 35.2414L29.8215 44.0526C31.1705 45.4016 32.9626 46.1434 34.8695 46.1434C36.7764 46.1434 38.5698 45.4004 39.9176 44.0526C41.2666 42.7048 42.0084 40.9115 42.0084 39.0046C42.0084 37.0977 41.2666 35.3056 39.9176 33.9566Z" fill="#F6AA00"/>
<path d="M35.5457 35.6465L38.5709 32.6214L33.4204 27.4722L30.3953 30.4973L35.5457 35.6465Z" fill="url(#paint1_linear_377_1852)"/>
<path d="M28.332 7.76074L21.0056 15.0872L22.362 16.4436C22.4114 16.4856 22.4608 16.53 22.5077 16.5769L23.5839 17.6556C23.7382 17.8099 23.8839 17.9679 24.0258 18.1296L31.3621 10.7933L28.332 7.76074Z" fill="url(#paint2_linear_377_1852)"/>
<path d="M21.542 34.6817L20.9866 35.2371L12.8542 43.3682L9.96606 40.1999L18.5132 31.6528L21.542 34.6817Z" fill="url(#paint3_linear_377_1852)"/>
<path d="M55.6867 11.099C55.7166 10.2103 55.8779 9.40097 56.1746 8.6697C56.4713 7.93713 56.8994 7.30865 57.4615 6.78297C58.0249 6.25859 58.7158 5.85131 59.5369 5.56245C60.3592 5.27358 61.3169 5.12915 62.4112 5.12915C63.6981 5.12915 64.7599 5.2957 65.5953 5.62881C66.4319 5.96061 67.0968 6.36008 67.5926 6.82721C68.0883 7.29304 68.4371 7.77448 68.6362 8.27023C68.8365 8.76599 68.9497 9.18367 68.981 9.52459C68.9953 9.70155 68.9393 9.84598 68.8144 9.95788C68.6895 10.0685 68.5451 10.1244 68.3811 10.1244H66.5842C66.4215 10.1244 66.2914 10.0841 66.1951 10.0021C66.0988 9.92145 66.0286 9.83557 65.9843 9.74709C65.9544 9.68854 65.8776 9.55972 65.7514 9.35933C65.6252 9.16025 65.4261 8.95336 65.1529 8.73866C64.8783 8.52397 64.5192 8.33139 64.0768 8.16093C63.6331 7.99048 63.0787 7.9059 62.4112 7.9059C61.3013 7.9059 60.4139 8.20648 59.749 8.80503C59.0828 9.40357 58.7275 10.2064 58.6833 11.2122C58.6534 11.7757 58.6391 12.3781 58.6391 13.0209C58.6391 13.665 58.6534 14.2674 58.6833 14.8296C58.7275 16.0579 59.0828 16.9492 59.749 17.5048C60.4139 18.0591 61.3013 18.3363 62.4112 18.3363C62.959 18.3363 63.4626 18.2777 63.9206 18.1593C64.3786 18.0422 64.7755 17.8483 65.1086 17.5816C65.4404 17.3161 65.6994 16.9648 65.8854 16.5276C66.0702 16.0904 66.1626 15.5543 66.1626 14.9193V14.7424H63.4561C63.2934 14.7424 63.1529 14.6838 63.0345 14.5654C62.9161 14.447 62.8575 14.3065 62.8575 14.1438V12.5642C62.8575 12.4015 62.9161 12.261 63.0345 12.1413C63.1516 12.0242 63.2921 11.9643 63.4561 11.9643H68.5594C68.722 11.9643 68.8626 12.0242 68.9823 12.1413C69.0994 12.2597 69.1592 12.4002 69.1592 12.5642V15.0039C69.1592 15.8926 69.0174 16.7098 68.7363 17.4567C68.4553 18.2036 68.0337 18.8476 67.4716 19.3876C66.9082 19.9276 66.2068 20.3492 65.3636 20.6524C64.5192 20.9556 63.5355 21.1065 62.4112 21.1065C61.287 21.1065 60.3111 20.9582 59.4822 20.6628C58.6534 20.3674 57.965 19.9524 57.4185 19.4202C56.8707 18.888 56.4531 18.2478 56.1642 17.5009C55.8753 16.754 55.7166 15.9356 55.6867 15.0482C55.671 14.7671 55.6606 14.4574 55.6528 14.1165C55.645 13.7769 55.6411 13.4282 55.6411 13.0729C55.6411 12.7177 55.645 12.3703 55.6528 12.0307C55.6606 11.6911 55.671 11.3801 55.6867 11.099Z" fill="white"/>
<path d="M76.1027 20.8856C75.9401 20.8856 75.7995 20.827 75.6811 20.7086C75.5627 20.5902 75.5042 20.4497 75.5042 20.287V5.95044C75.5042 5.78779 75.5627 5.64726 75.6811 5.52755C75.7982 5.41044 75.9388 5.35059 76.1027 5.35059H77.901C78.0636 5.35059 78.2041 5.41044 78.3225 5.52755C78.4396 5.64596 78.4995 5.78649 78.4995 5.95044V20.2857C78.4995 20.4483 78.4396 20.5889 78.3225 20.7073C78.2041 20.8257 78.0636 20.8843 77.901 20.8843H76.1027V20.8856Z" fill="white"/>
<path d="M95.5868 5.35059C95.7494 5.35059 95.89 5.41044 96.0084 5.52755C96.1268 5.64596 96.1853 5.78649 96.1853 5.95044V7.52488C96.1853 7.68753 96.1268 7.82806 96.0084 7.94777C95.89 8.06618 95.7494 8.12473 95.5868 8.12473H88.5083V12.4291H95.1431C95.3057 12.4291 95.4463 12.4889 95.566 12.606C95.6831 12.7245 95.7429 12.865 95.7429 13.0289V14.6047C95.7429 14.7673 95.6831 14.9079 95.566 15.0263C95.4476 15.1447 95.307 15.2032 95.1431 15.2032H88.5083V20.2857C88.5083 20.4483 88.4484 20.5889 88.3313 20.7073C88.2129 20.8257 88.0724 20.8843 87.9097 20.8843H86.1115C85.9488 20.8843 85.8083 20.8257 85.6899 20.7073C85.5715 20.5889 85.5129 20.4483 85.5129 20.2857V5.95044C85.5129 5.78779 85.5715 5.64726 85.6899 5.52755C85.807 5.41044 85.9475 5.35059 86.1115 5.35059H95.5868Z" fill="white"/>
<path d="M112.654 5.35059C112.816 5.35059 112.957 5.41044 113.075 5.52755C113.192 5.64596 113.252 5.78649 113.252 5.95044V7.52488C113.252 7.68753 113.192 7.82806 113.075 7.94777C112.957 8.06618 112.816 8.12473 112.654 8.12473H108.659V20.2857C108.659 20.4483 108.6 20.5889 108.482 20.7073C108.364 20.8257 108.223 20.8843 108.06 20.8843H106.262C106.1 20.8843 105.959 20.8257 105.841 20.7073C105.722 20.5889 105.664 20.4483 105.664 20.2857V8.12603H101.669C101.506 8.12603 101.366 8.06748 101.246 7.94907C101.128 7.83066 101.069 7.69014 101.069 7.52618V5.95174C101.069 5.78909 101.128 5.64856 101.246 5.52885C101.364 5.41174 101.505 5.35189 101.669 5.35189H112.654V5.35059Z" fill="white"/>
<path d="M134.225 15.9596C134.255 15.7671 134.331 15.6226 134.458 15.5263C134.584 15.4301 134.72 15.3819 134.869 15.3819H136.667C136.83 15.3819 136.974 15.4366 137.1 15.5485C137.225 15.6591 137.281 15.8035 137.267 15.9818C137.223 16.5881 137.07 17.1945 136.813 17.8008C136.554 18.4085 136.158 18.955 135.625 19.4429C135.093 19.9322 134.419 20.3317 133.605 20.6413C132.792 20.951 131.807 21.1072 130.654 21.1072C129.633 21.1072 128.73 20.9549 127.946 20.6531C127.162 20.3499 126.497 19.9283 125.949 19.3883C125.401 18.8483 124.976 18.2003 124.674 17.4456C124.371 16.6909 124.188 15.8699 124.13 14.9824C124.1 14.4203 124.086 13.7984 124.086 13.1178C124.086 12.4373 124.101 11.8166 124.13 11.2532C124.188 10.3658 124.371 9.54475 124.674 8.79006C124.977 8.03537 125.403 7.38867 125.949 6.84738C126.497 6.30868 127.162 5.88579 127.946 5.58262C128.731 5.27944 129.633 5.1272 130.654 5.1272C131.807 5.1272 132.792 5.28334 133.605 5.59302C134.419 5.90401 135.093 6.30348 135.625 6.79143C136.157 7.27937 136.552 7.83108 136.813 8.44524C137.07 9.05941 137.223 9.66186 137.267 10.2539C137.281 10.4309 137.226 10.5753 137.1 10.6872C136.974 10.7978 136.83 10.8538 136.667 10.8538H134.869C134.72 10.8538 134.58 10.8069 134.447 10.7093C134.313 10.613 134.232 10.4686 134.203 10.2773C134.158 9.98065 134.054 9.69309 133.892 9.41203C133.729 9.13097 133.508 8.87984 133.227 8.65734C132.946 8.43483 132.59 8.25397 132.162 8.11344C131.733 7.97291 131.231 7.90265 130.653 7.90265C130.075 7.90265 129.573 7.99113 129.143 8.16809C128.714 8.34635 128.356 8.58317 128.067 8.87854C127.778 9.17521 127.557 9.52914 127.402 9.94292C127.246 10.3567 127.154 10.7939 127.124 11.2519C127.094 11.8153 127.08 12.436 127.08 13.1165C127.08 13.7971 127.094 14.419 127.124 14.9811C127.154 15.4548 127.246 15.8946 127.402 16.3019C127.557 16.7091 127.78 17.0605 128.067 17.3558C128.356 17.6525 128.715 17.888 129.143 18.0663C129.573 18.2432 130.075 18.3317 130.653 18.3317C131.231 18.3317 131.732 18.2628 132.162 18.1209C132.59 17.9804 132.949 17.7995 133.238 17.577C133.527 17.3558 133.752 17.1047 133.916 16.8236C134.076 16.5439 134.179 16.2563 134.225 15.9596Z" fill="white"/>
<path d="M150.559 5.35059C150.795 5.35059 150.972 5.41434 151.091 5.53926C151.208 5.66548 151.312 5.85285 151.402 6.10528L156.838 20.1309C156.852 20.1751 156.86 20.2271 156.86 20.287C156.86 20.4497 156.802 20.5902 156.683 20.7086C156.565 20.827 156.424 20.8856 156.262 20.8856H154.664C154.367 20.8856 154.16 20.8231 154.042 20.6969C153.923 20.572 153.843 20.4497 153.799 20.3312L152.845 17.8668H145.833L144.878 20.3312C144.833 20.4484 144.753 20.572 144.634 20.6969C144.516 20.8231 144.309 20.8856 144.014 20.8856H142.416C142.253 20.8856 142.113 20.827 141.994 20.7086C141.876 20.5902 141.817 20.4497 141.817 20.287C141.817 20.2284 141.825 20.1764 141.839 20.1309L147.276 6.10528C147.365 5.85415 147.468 5.66548 147.587 5.53926C147.704 5.41434 147.882 5.35059 148.119 5.35059H150.559ZM151.778 15.0939L149.337 8.76883L146.896 15.0939H151.778Z" fill="white"/>
<path d="M168.754 5.35059C170.603 5.35059 172.009 5.77998 172.97 6.63747C173.932 7.49496 174.413 8.68685 174.413 10.2105C174.413 11.2905 174.165 12.2118 173.669 12.9743C173.173 13.7368 172.444 14.3028 171.483 14.6723L174.546 20.153C174.59 20.2428 174.612 20.3234 174.612 20.3976C174.612 20.5303 174.564 20.6448 174.468 20.7411C174.372 20.8374 174.257 20.8856 174.124 20.8856H172.238C171.941 20.8856 171.724 20.8153 171.583 20.6748C171.441 20.5342 171.342 20.4054 171.282 20.287L168.376 15.1161H165.425V20.287C165.425 20.4497 165.365 20.5902 165.248 20.7086C165.129 20.827 164.989 20.8856 164.826 20.8856H163.028C162.865 20.8856 162.725 20.827 162.606 20.7086C162.488 20.5902 162.429 20.4497 162.429 20.287V5.95044C162.429 5.78779 162.488 5.64726 162.606 5.52755C162.723 5.41044 162.864 5.35059 163.028 5.35059H168.754ZM165.426 12.3419H168.644C169.487 12.3419 170.16 12.1936 170.663 11.8982C171.167 11.6028 171.418 11.0407 171.418 10.2119C171.418 9.38429 171.167 8.82868 170.663 8.54762C170.16 8.26656 169.487 8.12603 168.644 8.12603H165.426V12.3419Z" fill="white"/>
<path d="M186.931 5.35059C188.025 5.35059 188.975 5.49502 189.782 5.78388C190.587 6.07275 191.261 6.48393 191.801 7.01611C192.341 7.5483 192.756 8.19239 193.045 8.94709C193.334 9.70178 193.507 10.545 193.566 11.4766C193.624 12.5722 193.624 13.6665 193.566 14.7608C193.507 15.6925 193.333 16.537 193.045 17.2916C192.756 18.045 192.345 18.6891 191.813 19.2226C191.281 19.7548 190.619 20.1647 189.827 20.4536C189.036 20.7424 188.107 20.8868 187.043 20.8868H181.45C181.288 20.8868 181.147 20.8283 181.029 20.7099C180.91 20.5915 180.852 20.4509 180.852 20.2883V5.95044C180.852 5.78779 180.91 5.64726 181.029 5.52755C181.146 5.41044 181.286 5.35059 181.45 5.35059H186.931ZM190.57 11.4766C190.541 11.003 190.448 10.5632 190.293 10.1559C190.137 9.74862 189.908 9.3934 189.605 9.09152C189.302 8.78834 188.921 8.55152 188.462 8.38107C188.004 8.21061 187.457 8.12603 186.82 8.12603H183.847V18.1127H186.932C187.539 18.1127 188.064 18.0268 188.508 17.8577C188.952 17.6872 189.321 17.4543 189.618 17.1576C189.913 16.8623 190.138 16.507 190.295 16.0932C190.449 15.6795 190.542 15.2358 190.572 14.7621C190.629 13.6665 190.629 12.5722 190.57 11.4766Z" fill="white"/>
<path d="M67.0488 40.6742C67.2245 40.6742 67.3741 40.738 67.5016 40.8642C67.6278 40.9904 67.6916 41.1414 67.6916 41.317V43.0073C67.6916 43.1829 67.6278 43.3339 67.5016 43.4601C67.3741 43.5863 67.2245 43.6501 67.0488 43.6501H56.5937C56.4181 43.6501 56.2671 43.5863 56.1409 43.4601C56.0147 43.3339 55.9509 43.1829 55.9509 43.0073V27.6233C55.9509 27.4476 56.0147 27.298 56.1409 27.1704C56.2671 27.0442 56.4181 26.9805 56.5937 26.9805H66.8588C67.0332 26.9805 67.1841 27.0442 67.3103 27.1704C67.4379 27.298 67.5016 27.4476 67.5016 27.6233V29.3135C67.5016 29.4892 67.4379 29.6401 67.3103 29.7663C67.1841 29.8925 67.0332 29.9563 66.8588 29.9563H59.1662V33.7428H66.3344C66.5101 33.7428 66.6597 33.8065 66.7873 33.934C66.9135 34.0603 66.9772 34.2112 66.9772 34.3856V36.0771C66.9772 36.2528 66.9135 36.4024 66.7873 36.5286C66.6597 36.6561 66.5101 36.7199 66.3344 36.7199H59.1662V40.6742H67.0488Z" fill="white"/>
<path d="M83.1588 43.6514C82.8413 43.6514 82.611 43.572 82.4679 43.4133C82.3248 43.2558 82.222 43.1361 82.1582 43.0554L78.3717 37.7921L74.6087 43.0554C74.5449 43.1348 74.4421 43.2545 74.299 43.4133C74.1559 43.572 73.9256 43.6514 73.6081 43.6514H71.6081C71.4325 43.6514 71.2815 43.5876 71.1553 43.4614C71.0291 43.3352 70.9653 43.1842 70.9653 43.0086C70.9653 42.9292 70.9888 42.842 71.0369 42.747L76.4915 35.1494L71.275 27.8848C71.2282 27.7898 71.2035 27.7026 71.2035 27.6233C71.2035 27.4476 71.2672 27.298 71.3947 27.1704C71.5209 27.0442 71.6719 26.9805 71.8462 26.9805H73.8462C74.1637 26.9805 74.394 27.0598 74.5371 27.2186C74.6802 27.3773 74.783 27.497 74.8455 27.5764L78.442 32.6016L82.0138 27.5764C82.0775 27.4983 82.1803 27.3786 82.3235 27.2186C82.4666 27.0611 82.6969 26.9805 83.0144 26.9805H85.0156C85.19 26.9805 85.3409 27.0442 85.4672 27.1704C85.5934 27.298 85.6584 27.4476 85.6584 27.6233C85.6584 27.7026 85.6337 27.7898 85.5869 27.8848L80.3235 35.2444L85.73 42.747C85.7768 42.842 85.8016 42.9292 85.8016 43.0086C85.8016 43.1842 85.7378 43.3352 85.6103 43.4614C85.4841 43.5876 85.3331 43.6514 85.1588 43.6514H83.1588Z" fill="white"/>
<path d="M99.3893 38.3648C99.4218 38.1579 99.5051 38.0044 99.6391 37.9003C99.7745 37.7962 99.9215 37.7454 100.079 37.7454H102.009C102.183 37.7454 102.338 37.8053 102.473 37.9237C102.607 38.0434 102.667 38.1982 102.651 38.3882C102.603 39.0401 102.441 39.6907 102.163 40.3413C101.886 40.9919 101.461 41.58 100.89 42.1044C100.318 42.6275 99.5949 43.0569 98.7218 43.39C97.8487 43.7231 96.7921 43.8897 95.5547 43.8897C94.4591 43.8897 93.4897 43.7257 92.6491 43.4017C91.8072 43.0764 91.0929 42.6236 90.506 42.0446C89.9179 41.4655 89.4625 40.7707 89.1372 39.9613C88.8106 39.1507 88.6167 38.2698 88.5529 37.3173C88.5217 36.7149 88.5061 36.0474 88.5061 35.3174C88.5061 34.5874 88.5217 33.9212 88.5529 33.3175C88.6167 32.365 88.8106 31.4841 89.1372 30.6734C89.4625 29.8628 89.9192 29.1692 90.506 28.5902C91.0942 28.0112 91.8085 27.5584 92.6491 27.2331C93.491 26.9078 94.4591 26.7451 95.5547 26.7451C96.7921 26.7451 97.8487 26.9117 98.7218 27.2448C99.5949 27.5779 100.318 28.006 100.89 28.5304C101.461 29.0547 101.886 29.6455 102.163 30.3052C102.441 30.9649 102.603 31.6103 102.651 32.2453C102.667 32.4365 102.607 32.5914 102.473 32.7098C102.338 32.8295 102.183 32.8881 102.009 32.8881H100.079C99.9215 32.8881 99.7705 32.8373 99.6274 32.7332C99.4843 32.6304 99.3971 32.4756 99.3646 32.2687C99.3177 31.9512 99.2071 31.6415 99.0315 31.3396C98.8558 31.0378 98.619 30.7684 98.3171 30.529C98.0152 30.2909 97.634 30.097 97.1734 29.9461C96.7127 29.7951 96.1727 29.7196 95.5547 29.7196C94.9353 29.7196 94.3953 29.8146 93.9347 30.0059C93.4741 30.1959 93.0902 30.4496 92.7805 30.7671C92.4708 31.0846 92.2327 31.4659 92.0662 31.9109C91.8996 32.3559 91.7994 32.823 91.7682 33.3161C91.737 33.9199 91.7214 34.5874 91.7214 35.3161C91.7214 36.0461 91.737 36.7136 91.7682 37.316C91.8007 37.8248 91.8996 38.2971 92.0662 38.733C92.2327 39.1689 92.4708 39.5463 92.7805 39.8651C93.0902 40.1826 93.4741 40.4363 93.9347 40.6263C94.3953 40.8175 94.9353 40.9125 95.5547 40.9125C96.174 40.9125 96.7127 40.8371 97.1734 40.6861C97.6327 40.5352 98.0191 40.34 98.3275 40.1032C98.6372 39.8651 98.8792 39.5944 99.0549 39.2925C99.2305 38.992 99.3411 38.6823 99.3893 38.3648Z" fill="white"/>
<path d="M120.143 26.9805C120.317 26.9805 120.468 27.0442 120.596 27.1704C120.722 27.298 120.786 27.4476 120.786 27.6233V43.0086C120.786 43.1842 120.722 43.3352 120.596 43.4614C120.468 43.5876 120.317 43.6514 120.143 43.6514H118.213C118.038 43.6514 117.887 43.5876 117.761 43.4614C117.634 43.3352 117.571 43.1842 117.571 43.0086V36.7212H110.378V43.0086C110.378 43.1842 110.314 43.3352 110.188 43.4614C110.06 43.5876 109.91 43.6514 109.735 43.6514H107.805C107.629 43.6514 107.479 43.5915 107.352 43.4731C107.226 43.3547 107.162 43.1986 107.162 43.0086V27.6233C107.162 27.4476 107.226 27.298 107.352 27.1704C107.479 27.0442 107.629 26.9805 107.805 26.9805H109.735C109.91 26.9805 110.06 27.0442 110.188 27.1704C110.314 27.298 110.378 27.4476 110.378 27.6233V33.7441H117.571V27.6233C117.571 27.4476 117.634 27.298 117.761 27.1704C117.887 27.0442 118.038 26.9805 118.213 26.9805H120.143Z" fill="white"/>
<path d="M134.063 26.9805C134.317 26.9805 134.507 27.0481 134.634 27.1822C134.761 27.3175 134.872 27.5192 134.967 27.7898L140.803 42.842C140.819 42.8902 140.827 42.9461 140.827 43.0086C140.827 43.1842 140.763 43.3352 140.637 43.4614C140.509 43.5876 140.36 43.6514 140.184 43.6514H138.469C138.151 43.6514 137.929 43.585 137.801 43.4484C137.675 43.3131 137.587 43.1829 137.54 43.0554L136.516 40.4114H128.991L127.967 43.0554C127.919 43.1829 127.832 43.3131 127.704 43.4484C127.578 43.5837 127.355 43.6514 127.038 43.6514H125.323C125.147 43.6514 124.996 43.5876 124.87 43.4614C124.744 43.3352 124.68 43.1842 124.68 43.0086C124.68 42.9448 124.687 42.8902 124.704 42.842L130.539 27.7898C130.634 27.5205 130.746 27.3188 130.873 27.1822C130.999 27.0481 131.19 26.9805 131.444 26.9805H134.063ZM135.372 37.4356L132.753 30.6485L130.133 37.4356H135.372Z" fill="white"/>
<path d="M155.531 43.6514C155.261 43.6514 155.054 43.5798 154.911 43.4367C154.768 43.2935 154.665 43.1829 154.602 43.1036L147.933 33.195V43.0073C147.933 43.1829 147.869 43.3339 147.743 43.4601C147.616 43.5863 147.466 43.6501 147.29 43.6501H145.361C145.185 43.6501 145.034 43.5863 144.908 43.4601C144.782 43.3339 144.718 43.1829 144.718 43.0073V27.6233C144.718 27.4476 144.782 27.298 144.908 27.1704C145.034 27.0442 145.185 26.9805 145.361 26.9805H147.027C147.297 26.9805 147.504 27.052 147.647 27.1952C147.79 27.3383 147.893 27.4489 147.956 27.5283L154.625 37.4369V27.6246C154.625 27.4489 154.689 27.2993 154.815 27.1717C154.941 27.0455 155.092 26.9818 155.268 26.9818H157.198C157.372 26.9818 157.523 27.0455 157.65 27.1717C157.777 27.2993 157.84 27.4489 157.84 27.6246V43.0099C157.84 43.1855 157.777 43.3365 157.65 43.4627C157.523 43.5889 157.372 43.6527 157.198 43.6527H155.531V43.6514Z" fill="white"/>
<path d="M162.686 33.1483C162.718 32.1958 162.893 31.3266 163.21 30.5407C163.528 29.7535 163.988 29.0795 164.592 28.516C165.194 27.9526 165.937 27.5154 166.818 27.2057C167.699 26.8961 168.727 26.7412 169.903 26.7412C171.284 26.7412 172.424 26.9195 173.32 27.2773C174.218 27.6351 174.933 28.0632 175.465 28.5629C175.996 29.0625 176.369 29.5791 176.584 30.1113C176.798 30.6422 176.921 31.0911 176.952 31.4567C176.968 31.648 176.908 31.8029 176.774 31.9213C176.638 32.041 176.485 32.0995 176.309 32.0995H174.38C174.204 32.0995 174.066 32.0553 173.962 31.9694C173.859 31.8822 173.784 31.7911 173.735 31.6949C173.703 31.6311 173.62 31.4919 173.486 31.2772C173.35 31.0625 173.137 30.84 172.843 30.611C172.549 30.3807 172.164 30.1738 171.689 29.9916C171.211 29.8094 170.616 29.717 169.902 29.717C168.71 29.717 167.759 30.0397 167.045 30.6825C166.33 31.3253 165.949 32.1867 165.901 33.2667C165.87 33.8705 165.854 34.5171 165.854 35.2068C165.854 35.8977 165.87 36.5444 165.901 37.1482C165.949 38.4663 166.33 39.4226 167.045 40.0173C167.759 40.6132 168.712 40.9099 169.902 40.9099C170.489 40.9099 171.029 40.8462 171.521 40.7199C172.013 40.5937 172.438 40.3868 172.795 40.1006C173.153 39.8143 173.43 39.437 173.627 38.9685C173.825 38.5001 173.925 37.925 173.925 37.2418V37.0519H171.02C170.844 37.0519 170.693 36.9881 170.567 36.8619C170.441 36.7357 170.377 36.5847 170.377 36.4091V34.7188C170.377 34.5432 170.441 34.3922 170.567 34.266C170.693 34.1398 170.844 34.076 171.02 34.076H176.498C176.672 34.076 176.823 34.1398 176.949 34.266C177.076 34.3922 177.141 34.5432 177.141 34.7188V37.3381C177.141 38.2906 176.988 39.1676 176.688 39.9705C176.386 40.772 175.933 41.4629 175.331 42.042C174.727 42.621 173.974 43.0738 173.068 43.3991C172.164 43.7244 171.107 43.887 169.901 43.887C168.693 43.887 167.646 43.7283 166.757 43.4095C165.867 43.092 165.129 42.6483 164.541 42.0758C163.954 41.5046 163.505 40.8175 163.196 40.016C162.886 39.2145 162.716 38.3375 162.683 37.3837C162.667 37.0831 162.656 36.75 162.648 36.3831C162.64 36.0187 162.636 35.6453 162.636 35.264C162.636 34.8828 162.64 34.5106 162.648 34.145C162.657 33.7833 162.669 33.4502 162.686 33.1483Z" fill="white"/>
<path d="M192.967 40.6742C193.142 40.6742 193.292 40.738 193.42 40.8642C193.546 40.9904 193.61 41.1414 193.61 41.317V43.0073C193.61 43.1829 193.546 43.3339 193.42 43.4601C193.292 43.5863 193.142 43.6501 192.967 43.6501H182.512C182.336 43.6501 182.185 43.5863 182.059 43.4601C181.933 43.3339 181.869 43.1829 181.869 43.0073V27.6233C181.869 27.4476 181.933 27.298 182.059 27.1704C182.185 27.0442 182.336 26.9805 182.512 26.9805H192.777C192.951 26.9805 193.102 27.0442 193.228 27.1704C193.356 27.298 193.42 27.4476 193.42 27.6233V29.3135C193.42 29.4892 193.356 29.6401 193.228 29.7663C193.102 29.8925 192.951 29.9563 192.777 29.9563H185.084V33.7428H192.252C192.428 33.7428 192.578 33.8065 192.705 33.934C192.831 34.0603 192.895 34.2112 192.895 34.3856V36.0771C192.895 36.2528 192.831 36.4024 192.705 36.5286C192.578 36.6561 192.428 36.7199 192.252 36.7199H185.084V40.6742H192.967Z" fill="white"/>
<defs>
<linearGradient id="paint0_linear_377_1852" x1="3.68136" y1="14.9115" x2="12.4031" y2="23.6333" gradientUnits="userSpaceOnUse">
<stop offset="0.1365" stop-color="#F95D00"/>
<stop offset="0.1846" stop-color="#F96400"/>
<stop offset="0.4665" stop-color="#F78A00"/>
<stop offset="0.693" stop-color="#F6A100"/>
<stop offset="0.8345" stop-color="#F6AA00"/>
</linearGradient>
<linearGradient id="paint1_linear_377_1852" x1="32.1578" y1="29.2338" x2="37.4611" y2="34.5371" gradientUnits="userSpaceOnUse">
<stop stop-color="white"/>
<stop offset="0.65625" stop-color="#F6AA00"/>
</linearGradient>
<linearGradient id="paint2_linear_377_1852" x1="22.511" y1="16.6127" x2="29.8472" y2="9.27646" gradientUnits="userSpaceOnUse">
<stop offset="0.411458" stop-color="#0BD7C3"/>
<stop offset="1" stop-color="white"/>
</linearGradient>
<linearGradient id="paint3_linear_377_1852" x1="11.3402" y1="41.855" x2="20.0279" y2="33.1673" gradientUnits="userSpaceOnUse">
<stop offset="0.2336" stop-color="#0BD7C3"/>
<stop offset="0.4374" stop-color="#5DAD80"/>
<stop offset="0.7264" stop-color="#CC7425"/>
<stop offset="0.855" stop-color="#F95D00"/>
</linearGradient>
</defs>
</svg>
