<svg width="164" height="42" viewBox="0 0 164 42" fill="none" xmlns="http://www.w3.org/2000/svg">
<path d="M14.3047 23.6811L17.8497 27.226L19.1736 25.9021C19.2161 25.8597 19.2596 25.8194 19.3053 25.7824L20.1252 24.9625C20.2613 24.8264 20.3897 24.6838 20.5095 24.5368L16.9798 21.0071L14.3047 23.6811Z" fill="#F6AA00"/>
<path d="M30.9772 7.01645C31.9582 6.03548 33.5543 6.03548 34.5363 7.01645C35.5173 7.99741 35.5184 9.59353 34.5363 10.5756L28.5645 16.5474C26.1061 19.0069 26.1061 23.007 28.5645 25.4654L28.8247 25.7158L31.4933 23.0473L31.2385 22.7925C30.2543 21.8083 30.2543 20.2067 31.2385 19.2225L37.2114 13.2507C39.6665 10.7944 39.6665 6.79869 37.2114 4.34355C34.7563 1.88841 30.7605 1.88841 28.3043 4.34355L26.9913 5.65659L29.6652 8.33057L30.9772 7.01645Z" fill="#6031D3"/>
<path d="M14.2899 23.6676L14.304 23.6817L16.9769 21.0067L20.5067 17.4758C20.388 17.331 20.2617 17.1906 20.1267 17.0556L19.2981 16.226C19.2546 16.19 19.2121 16.1508 19.1718 16.1105L17.8479 14.7866L14.2888 18.3458L14.2692 18.3262L11.5952 21.0001L11.6017 21.0067L3.84435 28.7641C2.65434 29.953 2 31.5349 2 33.2171C2 34.8992 2.65543 36.4812 3.84435 37.6701C5.03327 38.8601 6.61523 39.5144 8.29736 39.5144C9.97948 39.5144 11.5614 38.859 12.7515 37.6701L13.3535 37.068L10.8058 34.2732L10.0775 34.9961C9.60169 35.4719 8.97021 35.7332 8.29845 35.7332C7.62668 35.7332 6.99412 35.4719 6.51942 34.9961C6.04364 34.5203 5.78233 33.8888 5.78233 33.2171C5.78233 32.5453 6.04364 31.9127 6.51942 31.438L14.2899 23.6676Z" fill="#0BD7C3"/>
<path d="M6.51965 10.5756C5.53868 9.5946 5.53868 7.99739 6.51965 7.01643C7.50062 6.03546 9.09782 6.03546 10.0788 7.01643L17.8481 14.7869L19.1721 16.1108C19.2134 16.1511 19.2548 16.1903 19.2984 16.2262L20.1269 17.0558C20.2619 17.1908 20.3882 17.3313 20.5069 17.4761C22.1759 19.524 22.1759 22.4887 20.508 24.5378C20.3882 24.6847 20.2608 24.8263 20.1236 24.9635L19.3038 25.7833C19.2581 25.8203 19.2145 25.8606 19.1721 25.9031L18.3468 26.7338L21.0175 29.4045L21.7208 28.7012C21.7655 28.6641 21.8101 28.6238 21.8515 28.5814L22.7965 27.6363C22.9348 27.4981 23.0655 27.3565 23.1928 27.2117C26.3165 23.6787 26.3176 18.334 23.1928 14.7999C23.0676 14.6584 22.9381 14.5179 22.8031 14.3819L21.8537 13.4303C21.8123 13.3889 21.7698 13.3497 21.7252 13.3127L20.5287 12.1162L12.7528 4.34136C10.2976 1.88621 6.3019 1.88621 3.84567 4.34136C1.38944 6.79759 1.39053 10.7933 3.84567 13.2485L3.90229 13.3051L6.573 10.6344L6.51965 10.5756Z" fill="#F95D00"/>
<path d="M6.57306 10.6355L3.90234 13.3062L11.5966 20.9994L14.2706 18.3254L6.57306 10.6355Z" fill="url(#paint0_linear_438_1234)"/>
<path d="M37.2099 28.7633L36.4837 28.0371L36.0351 27.5885L33.3666 30.257L33.3611 30.2625L34.5348 31.4361C35.0106 31.9119 35.2719 32.5434 35.2719 33.2152C35.2719 33.8869 35.0106 34.5195 34.5348 34.9942C34.059 35.47 33.4275 35.7313 32.7558 35.7313C32.084 35.7313 31.4515 35.47 30.9768 34.9942L23.1933 27.2107C23.0659 27.3544 22.9352 27.497 22.7969 27.6353L21.8519 28.5803C21.8094 28.6228 21.7659 28.662 21.7213 28.7001L21.0179 29.4034L21.0212 29.4067L20.5312 29.8967L28.3039 37.6693C29.4939 38.8593 31.0747 39.5136 32.7569 39.5136C34.439 39.5136 36.021 38.8582 37.2099 37.6693C38.3999 36.4803 39.0542 34.8984 39.0542 33.2163C39.0542 31.5341 38.3999 29.9533 37.2099 28.7633Z" fill="#F6AA00"/>
<path d="M33.3686 30.2579L36.0371 27.5894L31.4937 23.0471L28.8252 25.7157L33.3686 30.2579Z" fill="url(#paint1_linear_438_1234)"/>
<path d="M26.9921 5.65552L20.5293 12.1184L21.7258 13.3149C21.7694 13.3519 21.8129 13.3911 21.8543 13.4325L22.8037 14.3841C22.9398 14.5202 23.0683 14.6595 23.1935 14.8021L29.665 8.33059L26.9921 5.65552Z" fill="url(#paint2_linear_438_1234)"/>
<path d="M21.019 29.4045L20.5291 29.8944L13.3553 37.0671L10.8076 34.2723L18.3472 26.7327L21.019 29.4045Z" fill="url(#paint3_linear_438_1234)"/>
<path d="M46.5947 9.7872C46.6198 9.04358 46.7548 8.36637 47.003 7.75449C47.2513 7.14152 47.6095 6.61566 48.0798 6.1758C48.5512 5.73703 49.1294 5.39625 49.8164 5.15455C50.5045 4.91284 51.3058 4.79199 52.2214 4.79199C53.2982 4.79199 54.1866 4.93135 54.8856 5.21007C55.5857 5.48771 56.142 5.82195 56.5569 6.21282C56.9717 6.60259 57.2635 7.00543 57.43 7.42025C57.5977 7.83506 57.6924 8.18455 57.7185 8.46981C57.7305 8.61788 57.6837 8.73873 57.5792 8.83236C57.4747 8.92491 57.3538 8.97172 57.2166 8.97172H55.7131C55.577 8.97172 55.4681 8.93797 55.3875 8.86938C55.307 8.80188 55.2482 8.73002 55.2112 8.65598C55.1861 8.60699 55.1219 8.4992 55.0163 8.33153C54.9107 8.16495 54.7441 7.99184 54.5154 7.8122C54.2857 7.63255 53.9852 7.47142 53.615 7.32879C53.2438 7.18616 52.78 7.1154 52.2214 7.1154C51.2927 7.1154 50.5502 7.3669 49.9938 7.86772C49.4364 8.36855 49.1392 9.04031 49.1021 9.88192C49.0771 10.3534 49.0651 10.8574 49.0651 11.3953C49.0651 11.9342 49.0771 12.4383 49.1021 12.9087C49.1392 13.9364 49.4364 14.6822 49.9938 15.1471C50.5502 15.6109 51.2927 15.8429 52.2214 15.8429C52.6798 15.8429 53.1011 15.7939 53.4844 15.6948C53.8676 15.5968 54.1997 15.4346 54.4784 15.2114C54.7561 14.9893 54.9727 14.6953 55.1284 14.3295C55.283 13.9637 55.3603 13.5151 55.3603 12.9838V12.8357H53.0957C52.9596 12.8357 52.842 12.7867 52.7429 12.6876C52.6439 12.5886 52.5949 12.471 52.5949 12.3349V11.0131C52.5949 10.877 52.6439 10.7595 52.7429 10.6593C52.8409 10.5613 52.9585 10.5112 53.0957 10.5112H57.3658C57.5019 10.5112 57.6195 10.5613 57.7196 10.6593C57.8176 10.7584 57.8677 10.876 57.8677 11.0131V13.0546C57.8677 13.7982 57.749 14.4819 57.5139 15.1069C57.2787 15.7318 56.9259 16.2707 56.4556 16.7226C55.9842 17.1744 55.3973 17.5272 54.6918 17.7808C53.9852 18.0345 53.1621 18.1608 52.2214 18.1608C51.2807 18.1608 50.4642 18.0367 49.7706 17.7895C49.0771 17.5424 48.5012 17.1951 48.0439 16.7498C47.5855 16.3045 47.236 15.7688 46.9943 15.1439C46.7526 14.5189 46.6198 13.8341 46.5947 13.0916C46.5817 12.8564 46.573 12.5973 46.5664 12.312C46.5599 12.0279 46.5566 11.7361 46.5566 11.4388C46.5566 11.1416 46.5599 10.8509 46.5664 10.5667C46.573 10.2826 46.5817 10.0224 46.5947 9.7872Z" fill="black"/>
<path d="M63.6776 17.9757C63.5415 17.9757 63.4239 17.9267 63.3248 17.8276C63.2258 17.7285 63.1768 17.611 63.1768 17.4749V5.47897C63.1768 5.34287 63.2258 5.22529 63.3248 5.12512C63.4228 5.02713 63.5404 4.97705 63.6776 4.97705H65.1822C65.3183 4.97705 65.4359 5.02713 65.535 5.12512C65.633 5.2242 65.6831 5.34178 65.6831 5.47897V17.4738C65.6831 17.6099 65.633 17.7275 65.535 17.8265C65.4359 17.9256 65.3183 17.9746 65.1822 17.9746H63.6776V17.9757Z" fill="black"/>
<path d="M79.9809 4.97705C80.117 4.97705 80.2346 5.02713 80.3337 5.12512C80.4327 5.2242 80.4817 5.34178 80.4817 5.47897V6.79636C80.4817 6.93245 80.4327 7.05004 80.3337 7.15021C80.2346 7.24928 80.117 7.29828 79.9809 7.29828H74.0581V10.8999H79.6096C79.7457 10.8999 79.8633 10.95 79.9635 11.0479C80.0615 11.147 80.1115 11.2646 80.1115 11.4018V12.7203C80.1115 12.8564 80.0615 12.974 79.9635 13.073C79.8644 13.1721 79.7468 13.2211 79.6096 13.2211H74.0581V17.4738C74.0581 17.6099 74.008 17.7275 73.91 17.8265C73.8109 17.9256 73.6933 17.9746 73.5572 17.9746H72.0526C71.9165 17.9746 71.7989 17.9256 71.6998 17.8265C71.6008 17.7275 71.5518 17.6099 71.5518 17.4738V5.47897C71.5518 5.34287 71.6008 5.22529 71.6998 5.12512C71.7978 5.02713 71.9154 4.97705 72.0526 4.97705H79.9809Z" fill="black"/>
<path d="M94.2615 4.97705C94.3976 4.97705 94.5152 5.02713 94.6143 5.12512C94.7123 5.2242 94.7624 5.34178 94.7624 5.47897V6.79636C94.7624 6.93245 94.7123 7.05004 94.6143 7.15021C94.5152 7.24928 94.3976 7.29828 94.2615 7.29828H90.9191V17.4738C90.9191 17.6099 90.8701 17.7275 90.771 17.8265C90.6719 17.9256 90.5543 17.9746 90.4182 17.9746H88.9136C88.7775 17.9746 88.6599 17.9256 88.5608 17.8265C88.4617 17.7275 88.4128 17.6099 88.4128 17.4738V7.29936H85.0703C84.9342 7.29936 84.8166 7.25037 84.7164 7.15129C84.6174 7.05222 84.5684 6.93463 84.5684 6.79745V5.48006C84.5684 5.34396 84.6174 5.22638 84.7164 5.12621C84.8155 5.02822 84.9331 4.97814 85.0703 4.97814H94.2615V4.97705Z" fill="black"/>
<path d="M112.31 13.8539C112.335 13.6928 112.399 13.5719 112.505 13.4914C112.61 13.4108 112.725 13.3705 112.849 13.3705H114.353C114.489 13.3705 114.61 13.4162 114.716 13.5099C114.82 13.6024 114.867 13.7233 114.855 13.8724C114.818 14.3798 114.691 14.8872 114.475 15.3945C114.259 15.903 113.928 16.3602 113.481 16.7685C113.036 17.1779 112.472 17.5121 111.792 17.7713C111.111 18.0304 110.287 18.161 109.322 18.161C108.468 18.161 107.712 18.0337 107.057 17.7811C106.4 17.5274 105.844 17.1746 105.385 16.7228C104.927 16.271 104.571 15.7288 104.318 15.0973C104.065 14.4658 103.912 13.7788 103.863 13.0363C103.838 12.5659 103.826 12.0455 103.826 11.4761C103.826 10.9067 103.839 10.3873 103.863 9.9159C103.912 9.17337 104.065 8.48636 104.318 7.85488C104.572 7.22341 104.928 6.6823 105.385 6.22937C105.844 5.77863 106.4 5.42478 107.057 5.1711C107.713 4.91742 108.468 4.79004 109.322 4.79004C110.287 4.79004 111.111 4.92069 111.792 5.17981C112.472 5.44003 113.036 5.77427 113.481 6.18256C113.927 6.59084 114.258 7.05247 114.475 7.56636C114.691 8.08026 114.818 8.58435 114.855 9.07973C114.867 9.2278 114.822 9.34866 114.716 9.44229C114.61 9.53483 114.489 9.58165 114.353 9.58165H112.849C112.725 9.58165 112.607 9.54245 112.496 9.4608C112.384 9.38023 112.316 9.25938 112.291 9.09933C112.254 8.85109 112.167 8.61048 112.031 8.37531C111.895 8.14014 111.71 7.93001 111.475 7.74383C111.24 7.55765 110.942 7.40632 110.584 7.28873C110.225 7.17115 109.805 7.11235 109.321 7.11235C108.838 7.11235 108.417 7.18639 108.058 7.33446C107.699 7.48362 107.399 7.68177 107.158 7.92892C106.916 8.17716 106.731 8.4733 106.601 8.81952C106.471 9.16574 106.393 9.53157 106.368 9.91481C106.343 10.3862 106.331 10.9056 106.331 11.475C106.331 12.0444 106.343 12.5648 106.368 13.0352C106.393 13.4315 106.471 13.7995 106.601 14.1403C106.731 14.481 106.917 14.775 107.158 15.0222C107.399 15.2704 107.7 15.4675 108.058 15.6166C108.417 15.7647 108.838 15.8387 109.321 15.8387C109.805 15.8387 110.224 15.781 110.584 15.6623C110.942 15.5448 111.243 15.3934 111.484 15.2072C111.726 15.0222 111.915 14.812 112.052 14.5769C112.186 14.3428 112.272 14.1022 112.31 13.8539Z" fill="black"/>
<path d="M125.977 4.97705C126.175 4.97705 126.324 5.0304 126.423 5.13492C126.521 5.24053 126.608 5.39731 126.683 5.60853L131.232 17.3442C131.244 17.3812 131.25 17.4248 131.25 17.4749C131.25 17.611 131.201 17.7285 131.102 17.8276C131.003 17.9267 130.885 17.9757 130.749 17.9757H129.412C129.164 17.9757 128.991 17.9234 128.892 17.8178C128.793 17.7133 128.725 17.611 128.688 17.5119L127.89 15.4498H122.023L121.224 17.5119C121.187 17.6099 121.119 17.7133 121.02 17.8178C120.921 17.9234 120.748 17.9757 120.501 17.9757H119.164C119.028 17.9757 118.91 17.9267 118.811 17.8276C118.712 17.7285 118.663 17.611 118.663 17.4749C118.663 17.4259 118.67 17.3823 118.682 17.3442L123.23 5.60853C123.306 5.3984 123.392 5.24053 123.491 5.13492C123.589 5.0304 123.738 4.97705 123.936 4.97705H125.977ZM126.998 13.1296L124.955 7.83721L122.912 13.1296H126.998Z" fill="black"/>
<path d="M141.203 4.97705C142.75 4.97705 143.926 5.33634 144.73 6.05383C145.535 6.77132 145.938 7.76862 145.938 9.04355C145.938 9.94722 145.73 10.7181 145.315 11.3561C144.9 11.9941 144.29 12.4677 143.486 12.7769L146.049 17.3627C146.086 17.4379 146.104 17.5054 146.104 17.5674C146.104 17.6785 146.064 17.7743 145.983 17.8548C145.903 17.9354 145.807 17.9757 145.696 17.9757H144.117C143.869 17.9757 143.687 17.9169 143.57 17.7993C143.451 17.6817 143.368 17.5739 143.318 17.4749L140.886 13.1482H138.416V17.4749C138.416 17.611 138.366 17.7285 138.268 17.8276C138.169 17.9267 138.052 17.9757 137.916 17.9757H136.411C136.275 17.9757 136.157 17.9267 136.058 17.8276C135.959 17.7285 135.91 17.611 135.91 17.4749V5.47897C135.91 5.34287 135.959 5.22529 136.058 5.12512C136.156 5.02713 136.274 4.97705 136.411 4.97705H141.203ZM138.418 10.8269H141.11C141.816 10.8269 142.378 10.7028 142.8 10.4557C143.221 10.2085 143.431 9.73818 143.431 9.04464C143.431 8.35219 143.221 7.88729 142.8 7.65212C142.378 7.41695 141.816 7.29936 141.11 7.29936H138.418V10.8269Z" fill="black"/>
<path d="M156.412 4.97705C157.327 4.97705 158.122 5.0979 158.797 5.33961C159.471 5.58131 160.035 5.92536 160.487 6.37066C160.939 6.81596 161.286 7.35489 161.528 7.98637C161.77 8.61785 161.914 9.32336 161.963 10.1029C162.012 11.0196 162.012 11.9353 161.963 12.8509C161.914 13.6305 161.769 14.3371 161.528 14.9686C161.286 15.5989 160.942 16.1379 160.497 16.5843C160.052 17.0296 159.497 17.3725 158.835 17.6142C158.173 17.8559 157.396 17.9768 156.505 17.9768H151.826C151.69 17.9768 151.572 17.9278 151.473 17.8287C151.374 17.7296 151.325 17.6121 151.325 17.476V5.47897C151.325 5.34287 151.374 5.22529 151.473 5.12512C151.571 5.02713 151.689 4.97705 151.826 4.97705H156.412ZM159.457 10.1029C159.432 9.7066 159.355 9.3386 159.225 8.99782C159.095 8.65704 158.903 8.35981 158.649 8.10722C158.396 7.85354 158.077 7.65539 157.693 7.51276C157.31 7.37013 156.852 7.29936 156.319 7.29936H153.832V15.6556H156.413C156.92 15.6556 157.36 15.5837 157.731 15.4422C158.103 15.2995 158.412 15.1046 158.66 14.8564C158.907 14.6093 159.096 14.312 159.226 13.9658C159.356 13.6196 159.433 13.2483 159.458 12.852C159.506 11.9353 159.506 11.0196 159.457 10.1029Z" fill="black"/>
<path d="M56.1014 34.5335C56.2484 34.5335 56.3736 34.5868 56.4803 34.6924C56.5859 34.7981 56.6393 34.9244 56.6393 35.0713V36.4856C56.6393 36.6326 56.5859 36.7589 56.4803 36.8645C56.3736 36.9701 56.2484 37.0235 56.1014 37.0235H47.3533C47.2063 37.0235 47.08 36.9701 46.9744 36.8645C46.8688 36.7589 46.8154 36.6326 46.8154 36.4856V23.6133C46.8154 23.4663 46.8688 23.3411 46.9744 23.2344C47.08 23.1288 47.2063 23.0754 47.3533 23.0754H55.9425C56.0884 23.0754 56.2146 23.1288 56.3203 23.2344C56.427 23.3411 56.4803 23.4663 56.4803 23.6133V25.0276C56.4803 25.1746 56.427 25.3009 56.3203 25.4065C56.2146 25.5121 56.0884 25.5654 55.9425 25.5654H49.5057V28.7337H55.5037C55.6507 28.7337 55.7759 28.787 55.8826 28.8937C55.9882 28.9994 56.0415 29.1256 56.0415 29.2715V30.6869C56.0415 30.8339 55.9882 30.9591 55.8826 31.0647C55.7759 31.1714 55.6507 31.2248 55.5037 31.2248H49.5057V34.5335H56.1014Z" fill="black"/>
<path d="M69.5816 37.0246C69.316 37.0246 69.1233 36.9582 69.0035 36.8253C68.8837 36.6936 68.7977 36.5934 68.7444 36.5259L65.5761 32.1219L62.4274 36.5259C62.3741 36.5923 62.2881 36.6925 62.1683 36.8253C62.0485 36.9582 61.8558 37.0246 61.5902 37.0246H59.9168C59.7698 37.0246 59.6435 36.9712 59.5379 36.8656C59.4323 36.76 59.3789 36.6337 59.3789 36.4867C59.3789 36.4203 59.3985 36.3474 59.4388 36.2679L64.0029 29.9106L59.638 23.8321C59.5988 23.7526 59.5782 23.6797 59.5782 23.6133C59.5782 23.4663 59.6315 23.3411 59.7382 23.2344C59.8438 23.1288 59.9701 23.0754 60.116 23.0754H61.7894C62.0551 23.0754 62.2478 23.1419 62.3675 23.2747C62.4873 23.4075 62.5733 23.5077 62.6256 23.5741L65.6349 27.7789L68.6235 23.5741C68.6769 23.5088 68.7629 23.4086 68.8827 23.2747C69.0024 23.1429 69.1951 23.0754 69.4608 23.0754H71.1353C71.2812 23.0754 71.4075 23.1288 71.5131 23.2344C71.6187 23.3411 71.6731 23.4663 71.6731 23.6133C71.6731 23.6797 71.6524 23.7526 71.6132 23.8321L67.2092 29.9901L71.733 36.2679C71.7722 36.3474 71.7929 36.4203 71.7929 36.4867C71.7929 36.6337 71.7395 36.76 71.6328 36.8656C71.5272 36.9712 71.4009 37.0246 71.255 37.0246H69.5816Z" fill="black"/>
<path d="M83.162 32.601C83.1892 32.4279 83.2589 32.2994 83.371 32.2123C83.4843 32.1252 83.6073 32.0828 83.739 32.0828H85.3537C85.4996 32.0828 85.6291 32.1328 85.7424 32.2319C85.8545 32.3321 85.9046 32.4616 85.8915 32.6206C85.8512 33.1661 85.7151 33.7104 85.4832 34.2548C85.2513 34.7992 84.8953 35.2913 84.4173 35.7301C83.9394 36.1678 83.334 36.527 82.6035 36.8058C81.8729 37.0845 80.9889 37.2238 79.9534 37.2238C79.0367 37.2238 78.2256 37.0867 77.5223 36.8156C76.8178 36.5434 76.2201 36.1645 75.7291 35.68C75.237 35.1955 74.8559 34.6141 74.5837 33.9369C74.3104 33.2586 74.1482 32.5215 74.0949 31.7245C74.0687 31.2205 74.0557 30.6619 74.0557 30.0511C74.0557 29.4403 74.0687 28.8829 74.0949 28.3777C74.1482 27.5807 74.3104 26.8437 74.5837 26.1654C74.8559 25.4871 75.2381 24.9068 75.7291 24.4223C76.2212 23.9378 76.8189 23.5589 77.5223 23.2867C78.2267 23.0145 79.0367 22.8784 79.9534 22.8784C80.9889 22.8784 81.8729 23.0178 82.6035 23.2965C83.334 23.5752 83.9394 23.9334 84.4173 24.3722C84.8953 24.811 85.2513 25.3053 85.4832 25.8573C85.7151 26.4092 85.8512 26.9493 85.8915 27.4806C85.9046 27.6406 85.8545 27.7702 85.7424 27.8693C85.6291 27.9694 85.4996 28.0184 85.3537 28.0184H83.739C83.6073 28.0184 83.481 27.976 83.3612 27.8889C83.2415 27.8029 83.1685 27.6733 83.1413 27.5002C83.1021 27.2345 83.0096 26.9754 82.8626 26.7228C82.7156 26.4702 82.5175 26.2448 82.2649 26.0445C82.0123 25.8453 81.6933 25.6831 81.3079 25.5568C80.9224 25.4305 80.4706 25.3673 79.9534 25.3673C79.4352 25.3673 78.9834 25.4468 78.5979 25.6068C78.2125 25.7658 77.8913 25.9781 77.6322 26.2438C77.3731 26.5094 77.1739 26.8284 77.0345 27.2008C76.8951 27.5731 76.8113 27.964 76.7852 28.3766C76.759 28.8818 76.746 29.4403 76.746 30.05C76.746 30.6608 76.759 31.2194 76.7852 31.7235C76.8124 32.1492 76.8951 32.5444 77.0345 32.9091C77.1739 33.2738 77.3731 33.5896 77.6322 33.8563C77.8913 34.122 78.2125 34.3343 78.5979 34.4933C78.9834 34.6533 79.4352 34.7328 79.9534 34.7328C80.4717 34.7328 80.9224 34.6696 81.3079 34.5433C81.6922 34.417 82.0155 34.2537 82.2736 34.0556C82.5327 33.8563 82.7352 33.6299 82.8822 33.3773C83.0292 33.1258 83.1217 32.8667 83.162 32.601Z" fill="black"/>
<path d="M100.527 23.0754C100.673 23.0754 100.8 23.1288 100.906 23.2344C101.012 23.3411 101.065 23.4663 101.065 23.6133V36.4867C101.065 36.6337 101.012 36.76 100.906 36.8656C100.8 36.9712 100.673 37.0246 100.527 37.0246H98.9128C98.7658 37.0246 98.6395 36.9712 98.5339 36.8656C98.4283 36.76 98.375 36.6337 98.375 36.4867V31.2259H92.3563V36.4867C92.3563 36.6337 92.303 36.76 92.1974 36.8656C92.0907 36.9712 91.9655 37.0246 91.8185 37.0246H90.2039C90.0569 37.0246 89.9306 36.9745 89.825 36.8754C89.7194 36.7763 89.666 36.6457 89.666 36.4867V23.6133C89.666 23.4663 89.7194 23.3411 89.825 23.2344C89.9306 23.1288 90.0569 23.0754 90.2039 23.0754H91.8185C91.9655 23.0754 92.0907 23.1288 92.1974 23.2344C92.303 23.3411 92.3563 23.4663 92.3563 23.6133V28.7348H98.375V23.6133C98.375 23.4663 98.4283 23.3411 98.5339 23.2344C98.6395 23.1288 98.7658 23.0754 98.9128 23.0754H100.527Z" fill="black"/>
<path d="M112.175 23.0754C112.388 23.0754 112.546 23.1321 112.653 23.2442C112.759 23.3574 112.852 23.5262 112.932 23.7526L117.815 36.3474C117.828 36.3876 117.835 36.4345 117.835 36.4867C117.835 36.6337 117.781 36.76 117.676 36.8656C117.569 36.9712 117.444 37.0246 117.297 37.0246H115.862C115.596 37.0246 115.41 36.969 115.303 36.8547C115.198 36.7415 115.124 36.6326 115.084 36.5259L114.228 34.3136H107.931L107.074 36.5259C107.034 36.6326 106.961 36.7415 106.854 36.8547C106.749 36.9679 106.563 37.0246 106.297 37.0246H104.862C104.715 37.0246 104.589 36.9712 104.483 36.8656C104.378 36.76 104.324 36.6337 104.324 36.4867C104.324 36.4334 104.33 36.3876 104.344 36.3474L109.227 23.7526C109.306 23.5273 109.4 23.3585 109.506 23.2442C109.611 23.1321 109.771 23.0754 109.984 23.0754H112.175ZM113.271 31.8236L111.079 26.1446L108.887 31.8236H113.271Z" fill="black"/>
<path d="M130.137 37.0246C129.912 37.0246 129.739 36.9647 129.619 36.8449C129.499 36.7252 129.413 36.6326 129.36 36.5662L123.78 28.2753V36.4856C123.78 36.6326 123.727 36.7589 123.621 36.8645C123.514 36.9701 123.389 37.0235 123.242 37.0235H121.628C121.481 37.0235 121.354 36.9701 121.249 36.8645C121.143 36.7589 121.09 36.6326 121.09 36.4856V23.6133C121.09 23.4663 121.143 23.3411 121.249 23.2344C121.354 23.1288 121.481 23.0754 121.628 23.0754H123.022C123.248 23.0754 123.421 23.1353 123.541 23.2551C123.66 23.3748 123.746 23.4674 123.8 23.5338L129.38 31.8247V23.6144C129.38 23.4674 129.433 23.3422 129.539 23.2355C129.644 23.1299 129.77 23.0765 129.917 23.0765H131.532C131.678 23.0765 131.804 23.1299 131.911 23.2355C132.017 23.3422 132.07 23.4674 132.07 23.6144V36.4878C132.07 36.6348 132.017 36.7611 131.911 36.8667C131.804 36.9723 131.678 37.0257 131.532 37.0257H130.137V37.0246Z" fill="black"/>
<path d="M136.124 28.2363C136.152 27.4393 136.297 26.712 136.563 26.0544C136.829 25.3957 137.214 24.8317 137.719 24.3603C138.224 23.8889 138.845 23.5231 139.582 23.2639C140.319 23.0048 141.179 22.8752 142.164 22.8752C143.319 22.8752 144.273 23.0244 145.023 23.3238C145.774 23.6232 146.372 23.9814 146.817 24.3995C147.261 24.8176 147.574 25.2498 147.753 25.6951C147.933 26.1393 148.035 26.515 148.061 26.8209C148.075 26.9809 148.024 27.1105 147.912 27.2096C147.799 27.3097 147.671 27.3587 147.524 27.3587H145.909C145.762 27.3587 145.647 27.3217 145.56 27.2499C145.474 27.1769 145.41 27.1007 145.37 27.0201C145.343 26.9668 145.273 26.8503 145.161 26.6706C145.048 26.491 144.869 26.3048 144.623 26.1132C144.377 25.9205 144.055 25.7474 143.657 25.595C143.258 25.4425 142.76 25.3652 142.163 25.3652C141.165 25.3652 140.369 25.6352 139.772 26.1731C139.174 26.7109 138.855 27.4317 138.815 28.3353C138.789 28.8405 138.775 29.3816 138.775 29.9587C138.775 30.5368 138.789 31.0779 138.815 31.5831C138.855 32.686 139.174 33.4862 139.772 33.9838C140.369 34.4825 141.166 34.7307 142.163 34.7307C142.654 34.7307 143.105 34.6773 143.517 34.5717C143.929 34.4661 144.285 34.293 144.583 34.0535C144.882 33.814 145.114 33.4982 145.28 33.1063C145.445 32.7143 145.529 32.2331 145.529 31.6615V31.5025H143.098C142.951 31.5025 142.825 31.4492 142.719 31.3436C142.613 31.238 142.56 31.1117 142.56 30.9647V29.5504C142.56 29.4034 142.613 29.2771 142.719 29.1715C142.825 29.0659 142.951 29.0126 143.098 29.0126H147.682C147.827 29.0126 147.954 29.0659 148.059 29.1715C148.165 29.2771 148.219 29.4034 148.219 29.5504V31.7421C148.219 32.539 148.092 33.2729 147.84 33.9446C147.588 34.6153 147.209 35.1934 146.705 35.6779C146.2 36.1624 145.569 36.5413 144.812 36.8135C144.055 37.0857 143.171 37.2218 142.162 37.2218C141.151 37.2218 140.275 37.0889 139.531 36.8222C138.786 36.5565 138.169 36.1853 137.677 35.7062C137.186 35.2283 136.81 34.6534 136.551 33.9827C136.292 33.312 136.149 32.5782 136.122 31.7802C136.109 31.5287 136.099 31.2499 136.093 30.9429C136.086 30.6381 136.083 30.3256 136.083 30.0066C136.083 29.6876 136.086 29.3762 136.093 29.0703C136.1 28.7676 136.11 28.4889 136.124 28.2363Z" fill="black"/>
<path d="M161.462 34.5335C161.609 34.5335 161.734 34.5868 161.841 34.6924C161.946 34.7981 162 34.9244 162 35.0713V36.4856C162 36.6326 161.946 36.7589 161.841 36.8645C161.734 36.9701 161.609 37.0235 161.462 37.0235H152.714C152.567 37.0235 152.44 36.9701 152.335 36.8645C152.229 36.7589 152.176 36.6326 152.176 36.4856V23.6133C152.176 23.4663 152.229 23.3411 152.335 23.2344C152.44 23.1288 152.567 23.0754 152.714 23.0754H161.303C161.449 23.0754 161.575 23.1288 161.681 23.2344C161.787 23.3411 161.841 23.4663 161.841 23.6133V25.0276C161.841 25.1746 161.787 25.3009 161.681 25.4065C161.575 25.5121 161.449 25.5654 161.303 25.5654H154.866V28.7337H160.864C161.011 28.7337 161.136 28.787 161.243 28.8937C161.349 28.9994 161.402 29.1256 161.402 29.2715V30.6869C161.402 30.8339 161.349 30.9591 161.243 31.0647C161.136 31.1714 161.011 31.2248 160.864 31.2248H154.866V34.5335H161.462Z" fill="black"/>
<defs>
<linearGradient id="paint0_linear_438_1234" x1="5.23972" y1="11.9687" x2="12.9334" y2="19.6624" gradientUnits="userSpaceOnUse">
<stop offset="0.1365" stop-color="#F95D00"/>
<stop offset="0.1846" stop-color="#F96400"/>
<stop offset="0.4665" stop-color="#F78A00"/>
<stop offset="0.693" stop-color="#F6A100"/>
<stop offset="0.8345" stop-color="#F6AA00"/>
</linearGradient>
<linearGradient id="paint1_linear_438_1234" x1="30.38" y1="24.6011" x2="35.0582" y2="29.2793" gradientUnits="userSpaceOnUse">
<stop offset="0.0361" stop-color="#6031D3"/>
<stop offset="0.103" stop-color="#6F3DBE"/>
<stop offset="0.3346" stop-color="#9E637B"/>
<stop offset="0.5443" stop-color="#C48246"/>
<stop offset="0.7248" stop-color="#DF9820"/>
<stop offset="0.8691" stop-color="#F0A509"/>
<stop offset="0.9592" stop-color="#F6AA00"/>
</linearGradient>
<linearGradient id="paint2_linear_438_1234" x1="21.8572" y1="13.4641" x2="28.3287" y2="6.99257" gradientUnits="userSpaceOnUse">
<stop offset="0.392" stop-color="#0BD7C3"/>
<stop offset="0.4814" stop-color="#15C4C5"/>
<stop offset="0.6638" stop-color="#2F91CA"/>
<stop offset="0.9208" stop-color="#5841D1"/>
<stop offset="0.9681" stop-color="#6031D3"/>
</linearGradient>
<linearGradient id="paint3_linear_438_1234" x1="12.0197" y1="35.7323" x2="19.6834" y2="28.0686" gradientUnits="userSpaceOnUse">
<stop offset="0.2336" stop-color="#0BD7C3"/>
<stop offset="0.4374" stop-color="#5DAD80"/>
<stop offset="0.7264" stop-color="#CC7425"/>
<stop offset="0.855" stop-color="#F95D00"/>
</linearGradient>
</defs>
</svg>
