<svg width="47" height="47" viewBox="0 0 47 47" fill="none" xmlns="http://www.w3.org/2000/svg">
<path d="M23.5 46.1684C36.06 46.1684 46.2419 35.9865 46.2419 23.4265C46.2419 10.8665 36.06 0.68457 23.5 0.68457C10.94 0.68457 0.758057 10.8665 0.758057 23.4265C0.758057 35.9865 10.94 46.1684 23.5 46.1684Z" fill="#333333"/>
<path d="M23.4993 29.8809C19.941 29.8809 17.0447 26.9856 17.0447 23.4263C17.0447 19.867 19.941 16.9717 23.4993 16.9717C27.0577 16.9717 29.9539 19.867 29.9539 23.4263C29.9539 26.9856 27.0577 29.8809 23.4993 29.8809ZM23.4993 18.8159C20.9571 18.8159 18.8889 20.8841 18.8889 23.4263C18.8889 25.9685 20.9571 28.0368 23.4993 28.0368C26.0415 28.0368 28.1098 25.9685 28.1098 23.4263C28.1098 20.8841 26.0415 18.8159 23.4993 18.8159Z" fill="white"/>
<path d="M30.4175 18.0274C31.2548 18.0274 31.9336 17.3486 31.9336 16.5112C31.9336 15.6739 31.2548 14.9951 30.4175 14.9951C29.5802 14.9951 28.9014 15.6739 28.9014 16.5112C28.9014 17.3486 29.5802 18.0274 30.4175 18.0274Z" fill="white"/>
<path d="M29.0329 35.4138H17.9678C14.4095 35.4138 11.5132 32.5184 11.5132 28.9592V17.8941C11.5132 14.3348 14.4095 11.4395 17.9678 11.4395H29.0329C32.5912 11.4395 35.4875 14.3348 35.4875 17.8941V28.9592C35.4875 32.5184 32.5912 35.4138 29.0329 35.4138ZM17.9678 13.2836C15.4256 13.2836 13.3574 15.3519 13.3574 17.8941V28.9592C13.3574 31.5014 15.4256 33.5696 17.9678 33.5696H29.0329C31.5751 33.5696 33.6433 31.5014 33.6433 28.9592V17.8941C33.6433 15.3519 31.5751 13.2836 29.0329 13.2836H17.9678Z" fill="white"/>
</svg>
