<svg width="46" height="48" viewBox="0 0 46 48" fill="none" xmlns="http://www.w3.org/2000/svg">
<g clip-path="url(#clip0_377_1718)">
<path d="M23 47.4414C35.7025 47.4414 46 37.144 46 24.4414C46 11.7389 35.7025 1.44141 23 1.44141C10.2975 1.44141 0 11.7389 0 24.4414C0 37.144 10.2975 47.4414 23 47.4414Z" fill="#333333"/>
<path d="M17.5999 34.2001H12.2666V18.2001H17.5999V34.2001ZM14.9343 16.0667C13.4591 16.0667 12.2666 14.871 12.2666 13.399C12.2666 11.927 13.4613 10.7334 14.9343 10.7334C16.4042 10.7334 17.5999 11.9291 17.5999 13.399C17.5999 14.871 16.4042 16.0667 14.9343 16.0667ZM36.7999 34.2001H31.6725V26.4134C31.6725 24.5563 31.6373 22.1681 29.0069 22.1681C26.337 22.1681 25.9263 24.1905 25.9263 26.279V34.2001H20.7999V18.1883H25.7215V20.3761H25.7909C26.4757 19.1174 28.1493 17.7905 30.6453 17.7905C35.8399 17.7905 36.7999 21.1067 36.7999 25.4182C36.7999 25.4182 36.7999 34.2001 36.7999 34.2001Z" fill="white"/>
</g>
<defs>
<clipPath id="clip0_377_1718">
<rect width="46" height="47.5333" fill="white"/>
</clipPath>
</defs>
</svg>
