<svg width="24" height="24" viewBox="0 0 24 24" fill="none" xmlns="http://www.w3.org/2000/svg">
<circle cx="12" cy="12" r="12" fill="#1E1E28"/>
<path fill-rule="evenodd" clip-rule="evenodd" d="M17.4848 7.66473C17.2417 7.41974 16.8477 7.41787 16.6027 7.66037L9.31359 14.8853L6.8338 12.3631C6.59193 12.1181 6.19796 12.1144 5.95172 12.3556C5.70611 12.5969 5.70362 12.9915 5.94424 13.2371L9.30112 16.652L17.4804 8.54681C17.7254 8.30369 17.7273 7.90972 17.4848 7.66473Z" fill="white"/>
<mask id="mask0_377_1958" style="mask-type:alpha" maskUnits="userSpaceOnUse" x="5" y="7" width="13" height="11">
<path fill-rule="evenodd" clip-rule="evenodd" d="M5.45459 7.16919H17.9762V17.094H5.45459V7.16919Z" fill="white"/>
</mask>
<g mask="url(#mask0_377_1958)">
<path fill-rule="evenodd" clip-rule="evenodd" d="M6.38878 12.4886C6.31024 12.4886 6.23107 12.5185 6.16998 12.5783C6.0478 12.6987 6.04655 12.8963 6.16748 13.0197L9.30432 16.2101L17.2611 8.32504C17.3833 8.2041 17.3845 8.00649 17.263 7.88369C17.142 7.76151 16.9444 7.76088 16.8216 7.88182L9.31055 15.3274L6.61133 12.5815C6.55086 12.5197 6.46982 12.4886 6.38878 12.4886ZM9.29805 17.0941L5.72236 13.4561C5.36142 13.0877 5.36579 12.4942 5.73296 12.1339C6.10137 11.7717 6.69358 11.7773 7.05576 12.1445L9.31612 14.4435L16.3833 7.43864C16.7499 7.07583 17.3427 7.07957 17.7055 7.44487L17.7061 7.44549C18.0683 7.81142 18.0658 8.40487 17.7005 8.76767L9.29805 17.0941Z" fill="white"/>
</g>
</svg>
