<svg width="18" height="14" viewBox="0 0 18 14" fill="none" xmlns="http://www.w3.org/2000/svg">
<path d="M17.3876 1.01233C17.2714 0.895166 17.1331 0.802172 16.9808 0.738712C16.8285 0.675251 16.6651 0.642578 16.5001 0.642578C16.335 0.642578 16.1717 0.675251 16.0193 0.738712C15.867 0.802172 15.7288 0.895166 15.6126 1.01233L6.30006 10.3373L2.38756 6.41233C2.26691 6.29578 2.12448 6.20414 1.96841 6.14263C1.81234 6.08113 1.64569 6.05097 1.47796 6.05387C1.31024 6.05677 1.14472 6.09268 0.990877 6.15954C0.837029 6.22641 0.697857 6.32293 0.581309 6.44358C0.464761 6.56423 0.373119 6.70666 0.311614 6.86273C0.250109 7.0188 0.219946 7.18545 0.222847 7.35318C0.225749 7.5209 0.261659 7.68641 0.328526 7.84026C0.395393 7.99411 0.491907 8.13328 0.612559 8.24983L5.41256 13.0498C5.52876 13.167 5.66701 13.26 5.81934 13.3234C5.97166 13.3869 6.13505 13.4196 6.30006 13.4196C6.46507 13.4196 6.62846 13.3869 6.78078 13.3234C6.9331 13.26 7.07136 13.167 7.18756 13.0498L17.3876 2.84983C17.5144 2.73277 17.6157 2.59071 17.685 2.43259C17.7542 2.27446 17.79 2.1037 17.79 1.93108C17.79 1.75845 17.7542 1.58769 17.685 1.42957C17.6157 1.27144 17.5144 1.12938 17.3876 1.01233Z" fill="#10881C"/>
</svg>
